# xmcd
#
# Track frame offsets: 
#        150
#        25219
#        42452
#        74057
#        111414
#        143556
#        174667
#        205825
#        223107
#        236564
#        254239
#        265026
#        276930
#        288352
#        304568
#
# Disc length: 4222 seconds
#
# Revision: 0
# Processed by: cddbd v1.5.2PL0 Copyright (c) Steve Scherf et al.
# Submitted via: ExactAudioCopy v1.3
#
DISCID=f1107c0f
DTITLE=The Next Generation - Songs In The Key Of Sam
DYEAR=2020
DGENRE=Blues
TTITLE0=Caldonia
TTITLE1=Ooh Pah Pah Dooh
TTITLE2=You Lied to Me
TTITLE3=Voodoo
TTITLE4=Bad Luck and Trouble
TTITLE5=Blousiana
TTITLE6=A Rose
TTITLE7=You Can Have My Husband
TTITLE8=Big Time in New Orleans
TTITLE9=Shoorah! Shoorah!
TTITLE10=Gettin' funkee
TTITLE11=Gumbo Cooking Song
TTITLE12=Lil' kingbee
TTITLE13=Crawfish Partee
TTITLE14=Graffiti Crime
EXTD=
EXTT0=
EXTT1=
EXTT2=
EXTT3=
EXTT4=
EXTT5=
EXTT6=
EXTT7=
EXTT8=
EXTT9=
EXTT10=
EXTT11=
EXTT12=
EXTT13=
EXTT14=
PLAYORDER=
